# xmcd
#
# Track frame offsets:
#        150
#        15951
#        34780
#        53992
#        69980
#        82896
#        98415
#        117610
#        138162
#        154526
#        174210
#        192080
#        211801
#        240367
#        262151
#        283709
#        301471
#
# Disc length: 4409 seconds
#
# Revision: 7
# Processed by: cddbd v1.5.2PL0 Copyright (c) Steve Scherf et al.
# Submitted via: jack 3.1.1
#
DISCID=d4113711
DTITLE=Eagles - The Complete Greatest Hits Disc 1
DYEAR=2003
DGENRE=Rock
TTITLE0=Take It Easy
TTITLE1=Witchy Woman
TTITLE2=Peaceful Easy Feeling
TTITLE3=Desperado
TTITLE4=Tequila Sunrise
TTITLE5=Doolin-Dalton
TTITLE6=Already Gone
TTITLE7=The Best Of My Love
TTITLE8=Jasmes Dean
TTITLE9=Ol' 55
TTITLE10=Midnight Flyer
TTITLE11=On The Border
TTITLE12=Lyin' Eyes
TTITLE13=One Of These Nights
TTITLE14=Take It To The Limit
TTITLE15=After The Thrill Is Gone
TTITLE16=Hotel California
EXTD=YEAR: 2003\nThe Very Best Of (released as The Complete Greatest H
EXTD=its in the UK, Australia, and New Zealand) is a two-disc compilat
EXTD=ion album by the Eagles, released in 2003.[1] This album combines
EXTD=all tracks that appeared on the two previously released Eagles g
EXTD=reatest hits albums (Their Greatest Hits (1971-1975) and Eagles Gre
EXTD=atest Hits, Vol. 2), along with other singles not included on the
EXTD=first two compilations, album tracks and the new track "Hole in
EXTD=the World".\nThe Very Best Of was also released as a limited-edit
EXTD=ion three-disc set with the third disc being a bonus DVD containi
EXTD=ng the video for the new song "Hole in the World," as well as a m
EXTD=aking of the video featurette and "Backstage Pass to Farewell 1."
EXTT0=
EXTT1=
EXTT2=
EXTT3=
EXTT4=
EXTT5=
EXTT6=
EXTT7=
EXTT8=
EXTT9=
EXTT10=
EXTT11=
EXTT12=
EXTT13=
EXTT14=
EXTT15=
EXTT16=
PLAYORDER=
